<?xml version="1.0" encoding="utf-8"?>
<!-- Generator: Adobe Illustrator 16.2.1, SVG Export Plug-In . SVG Version: 6.00 Build 0)  -->
<!DOCTYPE svg PUBLIC "-//W3C//DTD SVG 1.1//EN" "http://www.w3.org/Graphics/SVG/1.1/DTD/svg11.dtd" [
	<!ENTITY st0 "fill:#FFFFFF;">
]>
<svg version="1.1" id="Layer_1" xmlns="http://www.w3.org/2000/svg" xmlns:xlink="http://www.w3.org/1999/xlink" x="0px" y="0px"
	 width="100px" height="40px" viewBox="0 0 100 40" style="enable-background:new 0 0 100 40;" xml:space="preserve">
<path style="&st0;" d="M35,28h6v7h-6h-6h-6h-6h-6H5v-7h6h6h6h6H35z M65,28h-6h-6h-6v7h6h6h6h6h6v-7h-6H65z M17,23v-7h-6H5v7h6H17z
	 M23,16v7h6h6v-7h-6H23z M53,23h6h6h6v-7h-6h-6h-6h-6h-6v7h6H53z M83,16h-6v7h6h6h6v-7h-6H83z M17,11h6h6h6V4h-6h-6h-6h-6H5v7h6H17z
	 M53,11h6h6V4h-6h-6h-6h-6v7h6H53z M89,4h-6h-6h-6v7h6h6h6h6V4H89z"/>
</svg>
