<?xml version="1.0" encoding="utf-8"?>
<!-- Generator: Adobe Illustrator 16.2.1, SVG Export Plug-In . SVG Version: 6.00 Build 0)  -->
<!DOCTYPE svg PUBLIC "-//W3C//DTD SVG 1.1//EN" "http://www.w3.org/Graphics/SVG/1.1/DTD/svg11.dtd" [
	<!ENTITY st0 "fill:#FFFFFF;">
]>
<svg version="1.1" id="Layer_1" xmlns="http://www.w3.org/2000/svg" xmlns:xlink="http://www.w3.org/1999/xlink" x="0px" y="0px"
	 width="100px" height="40px" viewBox="0 0 100 40" style="enable-background:new 0 0 100 40;" xml:space="preserve">
<path style="&st0;" d="M26,23h6v7h-6h-6h-6H8v-7h6h6H26z M38,23v7h6h6v-7h-6H38z M74,23h-6h-6h-6v7h6h6h6h6h6v-7h-6H74z M20,18v-7
	h-6H8v7h6H20z M62,18v-7h-6h-6h-6h-6h-6h-6v7h6h6h6h6h6H62z M86,11h-6h-6h-6v7h6h6h6h6v-7H86z"/>
</svg>
