<?xml version="1.0" encoding="utf-8"?>
<!-- Generator: Adobe Illustrator 16.2.1, SVG Export Plug-In . SVG Version: 6.00 Build 0)  -->
<!DOCTYPE svg PUBLIC "-//W3C//DTD SVG 1.1//EN" "http://www.w3.org/Graphics/SVG/1.1/DTD/svg11.dtd" [
	<!ENTITY st0 "opacity:0.05;">
	<!ENTITY st1 "fill:#EFD9BB;">
	<!ENTITY st2 "fill:#F25A41;">
	<!ENTITY st3 "fill:#5C4B51;">
	<!ENTITY st4 "fill:url(#SVGID_1_);">
	<!ENTITY st5 "fill:url(#SVGID_2_);">
	<!ENTITY st6 "fill:url(#SVGID_3_);">
	<!ENTITY st7 "fill:url(#SVGID_4_);">
	<!ENTITY st8 "fill:url(#SVGID_5_);">
	<!ENTITY st9 "fill:url(#SVGID_6_);">
	<!ENTITY st10 "fill:url(#SVGID_7_);">
	<!ENTITY st11 "fill:#CEB79F;">
	<!ENTITY st12 "fill:#D3BEA7;">
	<!ENTITY st13 "fill:#A89383;">
]>
<svg version="1.1" id="Layer_1" xmlns="http://www.w3.org/2000/svg" xmlns:xlink="http://www.w3.org/1999/xlink" x="0px" y="0px"
	 width="710px" height="630px" viewBox="0 0 710 630" style="enable-background:new 0 0 710 630;" xml:space="preserve">
<path style="&st0;" d="M45,238.778c0,0-82.816,5.696-21.854,140.735C68.772,480.585,133.442,629.065,355,629.065
	s286.229-148.48,331.854-249.552C747.816,244.475,665,238.903,665,238.903L45,238.778z"/>
<g>
	<path style="&st3;" d="M294.585,98.865c0,0-26.525-21.76,19.505-72.487C345.674-8.43,500.591-25.83,459.028,98.865"/>
	<ellipse style="&st2;" cx="358.782" cy="98.728" rx="64.197" ry="31.992"/>
	<ellipse style="&st1;" cx="355.787" cy="330.042" rx="296.183" ry="236.965"/>
	<path style="&st3;" d="M671.006,280.218c-3.7-63.859-33.059-67.055-12.943-96.468c-23.493-27.046-80.352-64.28-143.629-85.235
		C472.17,84.52,403.399,79.993,355.787,79.993S239.404,84.52,197.141,98.515C133.863,119.47,77.005,156.704,53.512,183.75
		c20.116,29.413-9.243,32.608-12.943,96.468c-3.854,66.533,7.969,96.177,38.547,134.582
		c-39.252-109.168,42.073-89.339,22.788-161.469c-4.865-18.198,4.783-77.78,42.712-45.823c0,0,3.12-25.813,25.41-42.689
		c15.16-11.478,62.849-20.451,94.596-18.945c47.435,2.25,67.144,18.945,91.166,18.945s43.732-16.695,91.166-18.945
		c31.747-1.506,79.436,7.468,94.596,18.945c22.29,16.876,25.41,42.689,25.41,42.689c37.929-31.957,47.577,27.625,42.712,45.823
		c-19.285,72.13,62.04,52.301,22.788,161.469C663.037,376.395,674.86,346.751,671.006,280.218z"/>
	<g>
		<path style="&st1;" d="M647.566,303.757c-2.173-17.317,3.282-33.752,25.185-36.982c25.543-3.767-3.233,46.971,2.853,70.668
			c6.087,23.696,14.622,46.753-9.394,60.07c-12.188,6.759-30.833-6.294-30.833-6.294v-24.94
			C635.377,366.278,651.897,338.257,647.566,303.757z"/>
	</g>
	<g>
		<path style="&st1;" d="M64.008,303.757c2.173-17.317-3.282-33.752-25.185-36.982c-25.543-3.767,3.233,46.971-2.853,70.668
			c-6.087,23.696-14.622,46.753,9.394,60.07c12.188,6.759,30.833-6.294,30.833-6.294v-24.94
			C76.197,366.278,59.677,338.257,64.008,303.757z"/>
	</g>
	<g>
		<g>
			<g>
				<path style="&st11;" d="M410.594,383.771c0.019,0.01,0.152-0.002,0.427,0.001c0.295,0.001,0.727,0.004,1.275,0.007
					c0.554-0.013,1.221-0.011,1.979-0.047c0.764-0.056,1.609-0.083,2.528-0.183c0.458-0.041,0.933-0.081,1.423-0.154
					c0.489-0.046,0.993-0.126,1.509-0.206c1.03-0.147,2.106-0.356,3.212-0.591c1.105-0.24,2.237-0.533,3.384-0.855
					c0.349-0.115,1.298-0.388,1.695-0.56c0.455-0.177,0.924-0.363,1.412-0.602c0.94-0.464,1.776-0.987,2.428-1.577
					c0.657-0.588,1.132-1.235,1.488-1.97c0.711-1.459,0.809-3.38,0.609-5.105c-0.185-1.736-0.617-3.261-0.938-4.311
					c-0.322-1.059-0.556-1.65-0.53-1.619c-0.469-0.683-0.294-1.616,0.39-2.085c0.683-0.469,1.616-0.294,2.085,0.39
					c0,0,0.135,0.145,0.389,0.416c0.231,0.265,0.566,0.647,0.955,1.164c0.774,1.035,1.789,2.588,2.622,4.774
					c0.402,1.097,0.744,2.359,0.887,3.799c0.134,1.433,0.061,3.062-0.438,4.715c-0.479,1.652-1.415,3.276-2.616,4.585
					c-1.202,1.319-2.625,2.329-4.072,3.11c-0.365,0.188-0.719,0.384-1.098,0.56l-1.179,0.483c-0.848,0.331-1.19,0.424-2.104,0.719
					c-0.712,0.176-1.417,0.35-2.114,0.521c-0.712,0.119-1.409,0.253-2.104,0.347c-1.393,0.161-2.747,0.235-4.033,0.193
					c-1.285-0.047-2.496-0.165-3.599-0.381c-1.103-0.198-2.099-0.467-2.961-0.765c-0.862-0.305-1.601-0.594-2.189-0.902
					c-0.596-0.287-1.044-0.557-1.354-0.759c-0.325-0.198-0.503-0.341-0.484-0.33c-0.769-0.309-1.142-1.182-0.833-1.95
					S409.825,383.462,410.594,383.771z"/>
			</g>
		</g>
	</g>
	<g>
		<path style="&st11;" d="M442.24,356.137c0,0,0.436,0.266,1.253,0.764c0.822,0.502,2.038,1.233,3.612,2.114
			c3.142,1.771,7.667,4.219,13.21,6.745c2.771,1.262,5.796,2.544,9.023,3.741c3.221,1.214,6.656,2.316,10.208,3.282
			c3.56,0.943,7.246,1.726,10.977,2.214c3.729,0.486,7.495,0.714,11.186,0.551c1.847-0.056,3.67-0.229,5.463-0.476
			c0.95-0.154,1.898-0.31,2.844-0.463l0.764-0.134l1.01-0.134c0.697-0.097,1.307-0.139,1.958-0.201
			c2.596-0.174,5.399-0.148,8.414,0.608c2.979,0.713,6.256,2.287,8.795,4.77c2.546,2.476,4.089,5.574,4.781,8.34
			c0.714,2.801,0.729,5.333,0.502,7.615c-0.521,4.559-2.029,8.165-3.387,11.342c-1.427,3.154-2.768,5.882-4.031,8.243
			c-1.269,2.357-2.458,4.334-3.507,5.919c-1.03,1.591-1.901,2.796-2.501,3.611c-0.596,0.816-0.937,1.237-0.937,1.237l-0.019,0.023
			c-0.532,0.658-1.498,0.761-2.156,0.228c-0.478-0.387-0.662-1.003-0.522-1.563c0,0,0.514-2.051,1.309-5.583
			c0.373-1.774,0.837-3.909,1.244-6.349c0.408-2.434,0.775-5.188,0.748-8.129c0.005-2.913-0.372-6.043-1.022-8.66
			c-0.322-1.291-0.697-2.456-1.088-3.258c-0.393-0.823-0.683-1.234-0.912-1.53c-0.215-0.307-0.576-0.65-1.476-0.968
			c-0.873-0.303-2.176-0.551-3.676-0.589c-0.373,0.003-0.792-0.015-1.118,0l-0.529,0.008l-0.772,0.061l-0.388,0.025l-0.048,0.003
			c0.227-0.031,0.031-0.006,0.067-0.013l-0.109,0.009l-0.22,0.018l-0.877,0.067l-1.756,0.132c-2.341,0.124-4.687,0.146-7.009,0.022
			c-4.646-0.258-9.195-0.978-13.517-2.072c-4.323-1.09-8.426-2.51-12.245-4.138c-3.829-1.605-7.366-3.44-10.617-5.297
			c-3.245-1.873-6.194-3.799-8.824-5.688c-5.262-3.773-9.281-7.324-11.978-9.924c-1.342-1.31-2.365-2.367-3.055-3.102
			c-0.681-0.758-1.043-1.162-1.043-1.162c-0.558-0.621-0.506-1.576,0.115-2.133c0.508-0.456,1.239-0.505,1.794-0.167L442.24,356.137
			z"/>
	</g>
	<g>
		<path style="&st13;" d="M561.899,337.427c0,0-0.151,0.685-0.483,1.95c-0.162,0.633-0.426,1.449-0.708,2.399
			c-0.33,0.926-0.681,1.996-1.163,3.17c-0.909,2.372-2.278,5.159-4.144,8.23c-0.919,1.547-2.056,3.092-3.277,4.717
			c-1.276,1.576-2.67,3.212-4.262,4.794c-3.181,3.156-7.036,6.229-11.517,8.799c-4.458,2.602-9.505,4.744-14.884,6.255
			c-2.686,0.774-5.459,1.377-8.279,1.844c-1.42,0.241-2.808,0.443-4.287,0.599c-0.685,0.068-1.314,0.148-2.048,0.208l-2.22,0.173
			c-5.785,0.336-11.643,0.119-17.426-0.687c-1.446-0.186-2.882-0.449-4.316-0.686c-1.429-0.28-2.854-0.565-4.261-0.919
			c-2.826-0.64-5.594-1.472-8.307-2.357c-5.417-1.816-10.565-4.061-15.358-6.535c-4.78-2.504-9.228-5.207-13.214-8.076
			c-4.004-2.842-7.56-5.817-10.67-8.725c-3.111-2.91-5.729-5.8-7.962-8.414c-1.096-1.326-2.141-2.547-3.007-3.758
			c-0.884-1.194-1.728-2.262-2.402-3.293c-0.685-1.02-1.296-1.931-1.828-2.723c-0.495-0.815-0.915-1.509-1.257-2.071
			c-0.675-1.125-1.035-1.726-1.035-1.726c-0.277-0.462-0.127-1.062,0.336-1.34c0.415-0.249,0.942-0.153,1.246,0.205l0.025,0.029
			c0,0,0.445,0.524,1.282,1.508c0.414,0.492,0.926,1.099,1.526,1.812c0.62,0.694,1.332,1.493,2.131,2.388
			c1.58,1.794,3.594,3.885,5.945,6.216c2.375,2.307,5.127,4.83,8.332,7.311c3.17,2.519,6.744,5.057,10.706,7.418
			c3.975,2.336,8.32,4.523,12.994,6.299c4.659,1.807,9.615,3.245,14.706,4.314c5.104,1.022,10.322,1.75,15.552,2.111
			c2.614,0.18,5.229,0.281,7.829,0.321c2.597,0.004,5.194-0.059,7.732-0.193l1.849-0.111c0.619-0.037,1.334-0.114,1.993-0.17
			c1.206-0.111,2.486-0.235,3.704-0.41c2.459-0.332,4.862-0.781,7.2-1.306c2.334-0.539,4.597-1.182,6.771-1.914
			c2.169-0.747,4.25-1.581,6.231-2.49c3.962-1.826,7.491-3.996,10.551-6.309c3.055-2.318,5.638-4.774,7.772-7.133
			c2.17-2.337,3.817-4.62,5.17-6.527c1.335-1.939,2.275-3.489,2.94-4.585c0.641-1.141,1.008-1.738,1.008-1.738
			c0.439-0.716,1.376-0.939,2.092-0.5C561.777,336.149,562.034,336.812,561.899,337.427z"/>
	</g>
	<g>
		<g>
			<path style="&st3;" d="M298.617,269.525c-0.018-0.023-0.372-0.24-1.131-0.722c-0.768-0.463-1.906-1.132-3.384-1.927
				c-1.502-0.759-3.311-1.689-5.458-2.595c-2.156-0.884-4.588-1.847-7.304-2.697c-0.674-0.222-1.377-0.41-2.084-0.623
				c-0.705-0.218-1.429-0.416-2.176-0.588c-0.742-0.184-1.489-0.393-2.258-0.566c-0.771-0.161-1.555-0.324-2.349-0.49
				c-3.184-0.605-6.557-1.146-10.085-1.379c-1.754-0.202-3.559-0.177-5.373-0.281c-0.909-0.031-1.827,0.006-2.748,0.004
				c-0.921,0.014-1.846-0.008-2.776,0.06c-1.86,0.104-3.737,0.155-5.615,0.399l-2.825,0.296l-2.821,0.43
				c-1.889,0.238-3.75,0.677-5.618,1.04c-1.875,0.322-3.701,0.878-5.536,1.316c-3.652,0.961-7.219,2.066-10.631,3.292
				c-0.854,0.302-1.709,0.581-2.543,0.895c-0.83,0.329-1.651,0.655-2.464,0.978c-1.623,0.656-3.24,1.232-4.758,1.937
				c-1.535,0.671-3.029,1.324-4.473,1.955c-1.442,0.642-2.794,1.355-4.117,1.991c-1.316,0.649-2.614,1.21-3.797,1.843
				c-1.187,0.628-2.313,1.224-3.371,1.784c-1.067,0.551-2.065,1.067-2.989,1.544c-0.905,0.513-1.736,0.983-2.487,1.409
				c-3.02,1.683-4.776,2.619-4.776,2.619l-0.053,0.028c-0.733,0.391-1.644,0.113-2.035-0.62c-0.343-0.643-0.17-1.423,0.372-1.869
				c0,0,1.549-1.274,4.316-3.459c0.696-0.542,1.466-1.142,2.305-1.795c0.866-0.617,1.802-1.284,2.803-1.997
				c1.01-0.703,2.085-1.451,3.219-2.24c1.134-0.791,2.382-1.537,3.662-2.354c1.3-0.785,2.626-1.653,4.054-2.46
				c1.437-0.798,2.921-1.624,4.447-2.472c1.511-0.884,3.167-1.596,4.812-2.419c0.83-0.4,1.668-0.804,2.516-1.211
				c0.858-0.385,1.742-0.737,2.624-1.112c1.775-0.729,3.552-1.541,5.438-2.159c0.934-0.331,1.874-0.663,2.818-0.998
				c0.94-0.349,1.9-0.66,2.879-0.928c3.88-1.171,7.889-2.206,11.979-2.898l3.065-0.531c1.029-0.138,2.062-0.24,3.091-0.36
				c2.053-0.277,4.124-0.355,6.171-0.48c1.023-0.087,2.05-0.044,3.068-0.052c1.019,0.011,2.032-0.014,3.04,0.03
				c2.016,0.124,4.007,0.204,5.956,0.474c3.905,0.412,7.63,1.239,11.097,2.189c3.469,0.964,6.643,2.221,9.498,3.5
				c5.697,2.638,9.977,5.67,12.747,8.022c1.391,1.177,2.411,2.19,3.088,2.904c0.34,0.363,0.592,0.639,0.773,0.854
				c0.166,0.198,0.251,0.3,0.251,0.3l0.25,0.3c0.527,0.631,0.443,1.57-0.188,2.098s-1.571,0.443-2.098-0.188
				C298.631,269.542,298.622,269.53,298.617,269.525z"/>
		</g>
		<g>
			<linearGradient id="SVGID_1_" gradientUnits="userSpaceOnUse" x1="198.0874" y1="296.7188" x2="298.1685" y2="296.7188">
				<stop  offset="0" style="stop-color:#E6CFB8"/>
				<stop  offset="0.4577" style="stop-color:#DEC7AF"/>
				<stop  offset="1" style="stop-color:#CEB79F"/>
			</linearGradient>
			<path style="&st4;" d="M292.327,289.325c0,0-0.067,0.067-0.196,0.196c-0.14,0.133-0.334,0.334-0.595,0.564
				c-0.527,0.462-1.283,1.171-2.309,1.963c-2.035,1.615-5.084,3.716-9,5.8c-1.96,1.03-4.125,2.085-6.485,3.034
				c-2.349,0.983-4.89,1.869-7.562,2.66c-2.675,0.776-5.482,1.465-8.377,1.974c-1.443,0.273-2.916,0.454-4.39,0.668
				c-1.478,0.188-2.974,0.281-4.464,0.417c-2.991,0.178-5.996,0.222-8.946,0.048c-2.951-0.15-5.847-0.49-8.617-0.982
				c-2.772-0.48-5.414-1.146-7.876-1.884c-1.224-0.406-2.415-0.776-3.549-1.188c-1.119-0.452-2.201-0.889-3.238-1.308
				c-2.041-0.925-3.875-1.827-5.446-2.727c-1.557-0.941-2.912-1.721-3.964-2.496c-2.111-1.532-3.239-2.491-3.239-2.491
				c-0.658-0.559-0.738-1.545-0.179-2.202c0.336-0.396,0.828-0.583,1.309-0.546l0.087,0.007c0,0,1.469,0.12,3.904,0.476
				c1.212,0.19,2.707,0.326,4.364,0.573c0.824,0.141,1.72,0.211,2.65,0.317c0.929,0.105,1.886,0.268,2.905,0.345
				c2.022,0.208,4.188,0.44,6.476,0.596c1.132,0.14,2.314,0.155,3.505,0.233c1.187,0.113,2.409,0.135,3.644,0.178
				c1.231,0.078,2.488,0.091,3.756,0.107c1.266,0.036,2.55,0.032,3.842,0.027c1.291,0.012,2.595-0.055,3.901-0.06
				c1.307-0.051,2.62-0.101,3.932-0.152c2.624-0.177,5.254-0.333,7.841-0.618c2.596-0.215,5.139-0.593,7.623-0.9
				c1.24-0.185,2.459-0.366,3.653-0.544c1.197-0.198,2.368-0.392,3.508-0.58c2.287-0.387,4.451-0.803,6.464-1.188
				c4.017-0.796,7.412-1.531,9.801-2.07c2.395-0.536,3.762-0.843,3.762-0.843l0.064-0.014c0.837-0.188,1.667,0.339,1.854,1.176
				C292.86,288.424,292.682,288.962,292.327,289.325z"/>
		</g>
		<g>
			<linearGradient id="SVGID_2_" gradientUnits="userSpaceOnUse" x1="456.1719" y1="194.5645" x2="483.1437" y2="268.6689">
				<stop  offset="0.2" style="stop-color:#5C4B51"/>
				<stop  offset="1" style="stop-color:#98857C"/>
			</linearGradient>
			<path style="&st5;" d="M546.566,232.634l-3.101,0.146c-1.031,0.053-2.05,0.115-3.183,0.054l-3.363-0.108
				c-1.157-0.014-2.205-0.181-3.326-0.271l-3.344-0.348l-3.309-0.569c-1.102-0.209-2.252-0.363-3.335-0.633l-3.281-0.81
				c-1.089-0.289-2.236-0.526-3.295-0.872l-3.219-1.021l-3.247-1.054l-3.134-1.198l-3.159-1.223
				c-1.078-0.398-2.072-0.859-3.092-1.308l-6.139-2.743l6.691,2.933l-0.003,0l-3.126-0.8c-1.045-0.272-2.094-0.556-3.154-0.746
				l-3.185-0.652c-1.065-0.225-2.141-0.342-3.216-0.521c-2.151-0.38-4.323-0.558-6.509-0.796c-1.093-0.133-2.188-0.142-3.288-0.221
				c-1.1-0.054-2.205-0.157-3.309-0.144l-3.327-0.04c-1.111-0.003-2.221,0.063-3.338,0.089c-1.117,0.024-2.235,0.071-3.351,0.173
				l-3.361,0.261c-2.234,0.264-4.49,0.488-6.729,0.876c-2.254,0.314-4.482,0.797-6.733,1.24l-3.356,0.776
				c-1.121,0.261-2.227,0.585-3.346,0.875c-1.121,0.283-2.226,0.625-3.335,0.962c-1.111,0.332-2.226,0.666-3.323,1.05
				c-2.215,0.72-4.404,1.53-6.595,2.364l-3.266,1.313l-3.241,1.4l-3.213,1.485l-3.183,1.569c-2.104,1.083-4.205,2.195-6.263,3.383
				c-2.069,1.173-4.097,2.418-6.098,3.707c-1.978,1.278-4.003,2.671-5.78,4.021l-0.119,0.09c-1.322,1.004-3.209,0.746-4.213-0.577
				c-0.879-1.158-0.789-2.749,0.135-3.8c1.764-2.011,3.476-3.765,5.296-5.551c1.81-1.763,3.658-3.486,5.565-5.145
				c1.896-1.675,3.852-3.28,5.834-4.867l3.014-2.33l3.079-2.259l3.142-2.186l3.205-2.112c2.164-1.371,4.351-2.724,6.594-3.994
				c1.11-0.659,2.247-1.269,3.387-1.879c1.139-0.615,2.277-1.235,3.444-1.799c1.165-0.57,2.318-1.175,3.502-1.718l3.561-1.623
				c2.407-1.01,4.817-2.06,7.298-2.941c2.457-0.954,4.977-1.746,7.501-2.57c1.269-0.386,2.551-0.732,3.832-1.099
				c1.278-0.38,2.572-0.704,3.875-1.002c1.301-0.301,2.601-0.639,3.914-0.906l3.96-0.762c1.321-0.277,2.658-0.437,3.994-0.64
				c1.339-0.179,2.677-0.425,4.025-0.542c2.695-0.264,5.406-0.573,8.131-0.66c1.361-0.054,2.73-0.167,4.096-0.166l4.107-0.006
				c1.377-0.024,2.743,0.051,4.115,0.119l4.126,0.207l0.002,0.001l5.407,2.002c0.521,0.193,0.962,0.527,1.284,0.931l3.537,4.458
				c0.597,0.747,1.19,1.523,1.812,2.201l1.862,2.117l1.888,2.142l1.959,1.99l1.993,2.013c0.666,0.688,1.373,1.247,2.067,1.885
				l2.118,1.877c0.711,0.637,1.465,1.15,2.207,1.74l2.266,1.735l2.376,1.564c0.799,0.5,1.617,1.108,2.426,1.532l2.477,1.4
				c0.802,0.491,1.762,0.917,2.705,1.346l2.82,1.294c1.55,0.711,2.229,2.544,1.519,4.093
				C548.734,231.921,547.68,232.579,546.566,232.634z"/>
		</g>
		<g>
			<linearGradient id="SVGID_3_" gradientUnits="userSpaceOnUse" x1="253.8291" y1="194.5654" x2="226.8573" y2="268.6699">
				<stop  offset="0.2" style="stop-color:#5C4B51"/>
				<stop  offset="1" style="stop-color:#98857C"/>
			</linearGradient>
			<path style="&st6;" d="M162.287,226.745l2.82-1.294c0.944-0.428,1.904-0.855,2.706-1.346l2.477-1.4
				c0.808-0.424,1.626-1.031,2.425-1.532l2.376-1.564l2.265-1.735c0.742-0.59,1.496-1.103,2.207-1.74l2.118-1.877
				c0.695-0.638,1.401-1.196,2.068-1.885l1.993-2.013l1.959-1.99l1.887-2.142l1.862-2.117c0.622-0.678,1.215-1.454,1.812-2.201
				l3.538-4.458c0.345-0.435,0.788-0.746,1.272-0.927l5.419-2.006l0.002-0.001l4.126-0.207c1.372-0.068,2.738-0.143,4.114-0.119
				l4.108,0.006c1.365,0,2.734,0.112,4.096,0.166c2.725,0.087,5.436,0.396,8.131,0.66c1.349,0.118,2.687,0.364,4.025,0.542
				c1.336,0.204,2.673,0.363,3.995,0.64l3.959,0.762c1.314,0.268,2.614,0.605,3.915,0.906c1.302,0.298,2.596,0.622,3.875,1.002
				c1.281,0.367,2.563,0.713,3.832,1.099c2.524,0.825,5.044,1.616,7.501,2.57c2.48,0.882,4.89,1.931,7.298,2.941l3.561,1.623
				c1.183,0.543,2.336,1.147,3.501,1.718c1.167,0.564,2.307,1.184,3.445,1.799c1.14,0.61,2.276,1.22,3.386,1.879
				c2.243,1.27,4.431,2.623,6.594,3.994l3.205,2.112l3.143,2.186l3.078,2.259l3.015,2.33c1.982,1.587,3.938,3.192,5.834,4.867
				c1.907,1.658,3.756,3.382,5.565,5.145c1.82,1.786,3.532,3.54,5.296,5.551c1.095,1.248,0.971,3.148-0.278,4.243
				c-1.093,0.958-2.686,0.982-3.8,0.136l-0.12-0.092c-1.777-1.349-3.803-2.742-5.78-4.021c-2-1.289-4.028-2.534-6.098-3.707
				c-2.057-1.188-4.158-2.3-6.262-3.383l-3.182-1.569l-3.213-1.485l-3.241-1.4l-3.266-1.313c-2.19-0.834-4.38-1.645-6.595-2.364
				c-1.097-0.384-2.211-0.718-3.323-1.05c-1.109-0.337-2.214-0.679-3.336-0.962c-1.119-0.29-2.224-0.614-3.345-0.875l-3.356-0.776
				c-2.25-0.443-4.479-0.926-6.733-1.24c-2.238-0.388-4.495-0.612-6.728-0.876l-3.362-0.261c-1.115-0.102-2.233-0.149-3.351-0.173
				c-1.117-0.026-2.226-0.092-3.338-0.089l-3.326,0.04c-1.104-0.013-2.209,0.09-3.309,0.144c-1.1,0.08-2.195,0.088-3.288,0.221
				c-2.186,0.238-4.357,0.416-6.508,0.796c-1.076,0.18-2.151,0.297-3.216,0.521l-3.186,0.652c-1.061,0.19-2.108,0.474-3.154,0.746
				l-3.126,0.8l-0.002,0l6.691-2.933l-6.139,2.743c-1.019,0.449-2.013,0.91-3.091,1.308l-3.16,1.223l-3.134,1.198l-3.247,1.054
				l-3.219,1.021c-1.059,0.346-2.206,0.583-3.294,0.872l-3.282,0.81c-1.083,0.271-2.233,0.424-3.335,0.633l-3.309,0.569
				l-3.343,0.348c-1.122,0.09-2.169,0.258-3.327,0.271l-3.363,0.108c-1.134,0.061-2.152-0.001-3.183-0.054l-3.101-0.146
				c-1.703-0.078-3.021-1.521-2.943-3.225C160.545,228.219,161.275,227.213,162.287,226.745z"/>
		</g>
		<g>
			<g>
				<path style="&st3;" d="M410.902,267.338c0,0,0.086-0.102,0.251-0.3c0.182-0.216,0.434-0.492,0.773-0.854
					c0.677-0.714,1.696-1.728,3.087-2.904c2.771-2.352,7.051-5.385,12.747-8.022c2.855-1.279,6.028-2.536,9.498-3.5
					c3.467-0.95,7.192-1.778,11.097-2.189c1.948-0.27,3.939-0.351,5.955-0.474c1.008-0.043,2.021-0.019,3.041-0.03
					c1.018,0.007,2.045-0.036,3.067,0.052c2.049,0.125,4.119,0.203,6.172,0.48c1.028,0.12,2.062,0.222,3.091,0.36l3.064,0.531
					c4.091,0.692,8.1,1.727,11.98,2.898c0.979,0.268,1.938,0.579,2.878,0.928c0.945,0.334,1.885,0.667,2.819,0.998
					c1.885,0.618,3.662,1.43,5.438,2.159c0.882,0.375,1.766,0.727,2.624,1.112c0.847,0.408,1.686,0.812,2.515,1.211
					c1.646,0.823,3.302,1.535,4.812,2.419c1.526,0.848,3.012,1.673,4.447,2.472c1.429,0.807,2.755,1.676,4.055,2.46
					c1.279,0.818,2.528,1.563,3.662,2.354c1.134,0.789,2.208,1.537,3.219,2.24c1.001,0.713,1.938,1.38,2.804,1.997
					c0.838,0.653,1.608,1.253,2.305,1.795c2.767,2.185,4.316,3.459,4.316,3.459c0.642,0.528,0.733,1.476,0.206,2.117
					c-0.463,0.563-1.249,0.703-1.868,0.373l-0.055-0.029c0,0-1.757-0.936-4.776-2.619c-0.75-0.425-1.582-0.896-2.486-1.409
					c-0.924-0.477-1.922-0.993-2.989-1.544c-1.059-0.56-2.185-1.156-3.371-1.784c-1.183-0.633-2.48-1.193-3.797-1.843
					c-1.323-0.635-2.675-1.349-4.117-1.991c-1.444-0.631-2.938-1.284-4.473-1.955c-1.519-0.705-3.136-1.281-4.759-1.937
					c-0.812-0.323-1.634-0.649-2.464-0.978c-0.834-0.314-1.689-0.593-2.544-0.895c-3.411-1.225-6.979-2.33-10.63-3.292
					c-1.835-0.438-3.66-0.994-5.536-1.316c-1.868-0.363-3.729-0.802-5.618-1.04l-2.82-0.43l-2.825-0.296
					c-1.877-0.244-3.755-0.294-5.614-0.399c-0.931-0.068-1.855-0.046-2.776-0.06c-0.921,0.002-1.839-0.035-2.748-0.004
					c-1.813,0.104-3.618,0.079-5.373,0.281c-3.527,0.232-6.901,0.774-10.085,1.379c-0.794,0.166-1.577,0.329-2.349,0.49
					c-0.769,0.173-1.516,0.382-2.258,0.566c-0.746,0.172-1.472,0.371-2.176,0.588c-0.706,0.213-1.409,0.401-2.084,0.623
					c-2.717,0.85-5.147,1.813-7.305,2.697c-2.146,0.906-3.954,1.836-5.457,2.595c-1.479,0.795-2.617,1.463-3.384,1.927
					c-0.76,0.482-1.113,0.699-1.132,0.722c-0.515,0.642-1.452,0.745-2.094,0.23s-0.744-1.452-0.229-2.094
					c0.004-0.006,0.009-0.011,0.014-0.017L410.902,267.338z"/>
			</g>
			<g>
				<linearGradient id="SVGID_4_" gradientUnits="userSpaceOnUse" x1="411.9287" y1="296.7188" x2="512.0107" y2="296.7188">
					<stop  offset="0" style="stop-color:#CEB79F"/>
					<stop  offset="0.5423" style="stop-color:#DEC7AF"/>
					<stop  offset="1" style="stop-color:#E6CFB8"/>
				</linearGradient>
				<path style="&st7;" d="M419.275,286.729c0,0,1.368,0.307,3.763,0.843c2.389,0.538,5.784,1.274,9.801,2.069
					c2.014,0.386,4.178,0.802,6.465,1.189c1.14,0.188,2.311,0.382,3.508,0.58c1.194,0.178,2.413,0.359,3.653,0.544
					c2.483,0.307,5.026,0.685,7.623,0.9c2.587,0.286,5.218,0.441,7.841,0.618c1.312,0.051,2.625,0.101,3.933,0.152
					c1.306,0.004,2.609,0.071,3.9,0.06c1.292,0.005,2.575,0.009,3.842-0.027c1.269-0.016,2.525-0.029,3.756-0.107
					c1.236-0.043,2.458-0.064,3.645-0.178c1.191-0.078,2.373-0.094,3.505-0.233c2.288-0.155,4.454-0.387,6.476-0.596
					c1.019-0.077,1.977-0.239,2.905-0.345c0.93-0.105,1.826-0.176,2.649-0.317c1.657-0.248,3.152-0.383,4.364-0.573
					c2.435-0.356,3.903-0.476,3.903-0.476l0.079-0.007c0.86-0.07,1.614,0.57,1.685,1.43c0.043,0.518-0.18,1.003-0.545,1.318
					c0,0-1.129,0.959-3.239,2.491c-1.052,0.775-2.407,1.555-3.964,2.496c-1.571,0.9-3.406,1.802-5.446,2.727
					c-1.038,0.419-2.119,0.856-3.238,1.308c-1.135,0.412-2.325,0.783-3.55,1.188c-2.462,0.738-5.104,1.403-7.876,1.884
					c-2.77,0.492-5.665,0.832-8.616,0.982c-2.951,0.174-5.956,0.13-8.947-0.048c-1.49-0.137-2.986-0.229-4.464-0.417
					c-1.475-0.215-2.946-0.395-4.391-0.668c-2.895-0.508-5.701-1.197-8.377-1.974c-2.671-0.791-5.213-1.676-7.562-2.66
					c-2.359-0.949-4.525-2.004-6.485-3.035c-3.915-2.083-6.964-4.185-9-5.8c-1.025-0.792-1.781-1.501-2.309-1.963
					c-0.261-0.23-0.454-0.431-0.595-0.564c-0.129-0.13-0.195-0.197-0.195-0.197c-0.604-0.608-0.602-1.591,0.006-2.196
					c0.388-0.385,0.928-0.524,1.424-0.417L419.275,286.729z"/>
			</g>
		</g>
	</g>
	<g>
		<path style="&st11;" d="M300.622,386.554c0.018-0.011-0.16,0.132-0.485,0.33c-0.31,0.202-0.759,0.472-1.354,0.759
			c-0.589,0.309-1.328,0.598-2.19,0.902c-0.862,0.298-1.858,0.566-2.96,0.766c-1.103,0.215-2.313,0.333-3.599,0.38
			c-1.286,0.042-2.641-0.032-4.034-0.193c-0.694-0.094-1.392-0.228-2.103-0.347c-0.698-0.172-1.403-0.346-2.115-0.521
			c-0.913-0.295-1.255-0.388-2.104-0.719l-1.179-0.484c-0.378-0.175-0.732-0.371-1.098-0.559c-1.447-0.781-2.87-1.792-4.072-3.11
			c-1.201-1.31-2.137-2.933-2.616-4.586c-0.5-1.652-0.572-3.282-0.439-4.714c0.143-1.439,0.485-2.702,0.888-3.799
			c0.833-2.187,1.847-3.739,2.622-4.774c0.388-0.517,0.724-0.899,0.955-1.164c0.253-0.271,0.389-0.416,0.389-0.416
			c0.468-0.684,1.402-0.858,2.085-0.39s0.857,1.402,0.389,2.085c0.026-0.031-0.208,0.561-0.531,1.619
			c-0.321,1.049-0.753,2.574-0.938,4.31c-0.2,1.727-0.103,3.647,0.609,5.106c0.356,0.733,0.831,1.382,1.488,1.97
			c0.651,0.589,1.486,1.113,2.427,1.576c0.488,0.238,0.957,0.426,1.412,0.603c0.397,0.172,1.347,0.443,1.695,0.559
			c1.147,0.323,2.278,0.616,3.384,0.856c1.105,0.234,2.182,0.443,3.212,0.591c0.515,0.08,1.019,0.16,1.508,0.206
			c0.49,0.073,0.965,0.113,1.423,0.154c0.919,0.1,1.765,0.127,2.528,0.183c0.759,0.036,1.426,0.034,1.979,0.047
			c0.55-0.003,0.981-0.005,1.276-0.007c0.274-0.003,0.408,0.009,0.426-0.001c0.769-0.309,1.643,0.064,1.951,0.833
			S301.39,386.245,300.622,386.554z"/>
	</g>
	<g>
		<path style="&st11;" d="M269.829,358.398c0,0-0.363,0.404-1.043,1.162c-0.689,0.734-1.713,1.792-3.055,3.102
			c-2.696,2.6-6.715,6.15-11.978,9.924c-2.629,1.889-5.578,3.814-8.824,5.688c-3.251,1.856-6.788,3.691-10.617,5.297
			c-3.819,1.628-7.922,3.048-12.246,4.138c-4.32,1.095-8.871,1.814-13.516,2.072c-2.322,0.123-4.667,0.102-7.009-0.022l-1.756-0.132
			l-0.877-0.067l-0.219-0.018l-0.109-0.009c0.036,0.007-0.16-0.019,0.068,0.013l-0.048-0.003l-0.387-0.025l-0.773-0.061
			l-0.529-0.008c-0.326-0.015-0.746,0.003-1.118,0c-1.5,0.038-2.803,0.286-3.676,0.589c-0.899,0.317-1.261,0.661-1.476,0.968
			c-0.229,0.296-0.52,0.707-0.912,1.53c-0.39,0.802-0.765,1.967-1.087,3.258c-0.65,2.617-1.027,5.747-1.022,8.66
			c-0.028,2.941,0.339,5.695,0.748,8.129c0.407,2.439,0.871,4.574,1.243,6.349c0.796,3.532,1.31,5.583,1.309,5.583
			c0.206,0.821-0.293,1.653-1.115,1.859c-0.597,0.149-1.199-0.074-1.563-0.522l-0.02-0.024c0,0-0.34-0.421-0.936-1.237
			c-0.601-0.815-1.472-2.021-2.501-3.611c-1.049-1.585-2.238-3.562-3.506-5.919c-1.264-2.361-2.605-5.089-4.032-8.243
			c-1.358-3.177-2.866-6.783-3.387-11.342c-0.226-2.282-0.212-4.814,0.501-7.615c0.693-2.766,2.235-5.864,4.782-8.34
			c2.538-2.482,5.815-4.057,8.795-4.77c3.014-0.757,5.818-0.782,8.414-0.608c0.651,0.062,1.26,0.104,1.958,0.201l1.01,0.134
			l0.763,0.134c0.946,0.153,1.894,0.309,2.844,0.463c1.792,0.246,3.616,0.42,5.462,0.476c3.691,0.163,7.457-0.064,11.186-0.551
			c3.73-0.488,7.417-1.271,10.977-2.214c3.552-0.966,6.987-2.068,10.208-3.282c3.228-1.197,6.252-2.479,9.023-3.741
			c5.544-2.526,10.069-4.975,13.21-6.745c1.575-0.881,2.79-1.612,3.613-2.114c0.817-0.498,1.252-0.764,1.252-0.764l0.061-0.037
			c0.712-0.434,1.642-0.209,2.076,0.504C270.35,357.187,270.262,357.915,269.829,358.398z"/>
	</g>
	<g>
		<path style="&st13;" d="M150.98,336.302c0,0,0.367,0.599,1.008,1.738c0.665,1.096,1.605,2.646,2.94,4.586
			c1.352,1.907,3,4.19,5.169,6.526c2.135,2.359,4.718,4.814,7.773,7.133c3.06,2.312,6.589,4.482,10.55,6.309
			c1.981,0.909,4.063,1.743,6.232,2.489c2.173,0.733,4.436,1.376,6.77,1.915c2.338,0.524,4.741,0.974,7.201,1.306
			c1.217,0.174,2.498,0.299,3.704,0.41c0.66,0.056,1.374,0.133,1.994,0.17l1.848,0.111c2.539,0.135,5.136,0.197,7.733,0.193
			c2.6-0.04,5.214-0.142,7.829-0.321c5.229-0.361,10.447-1.089,15.552-2.111c5.09-1.069,10.047-2.508,14.706-4.313
			c4.674-1.776,9.02-3.964,12.994-6.3c3.962-2.361,7.536-4.899,10.707-7.417c3.205-2.481,5.957-5.004,8.332-7.312
			c2.352-2.331,4.365-4.422,5.946-6.216c0.798-0.895,1.511-1.693,2.13-2.388c0.601-0.714,1.112-1.32,1.527-1.812
			c0.836-0.983,1.282-1.508,1.282-1.508l0.025-0.029c0.349-0.411,0.966-0.461,1.376-0.111c0.37,0.313,0.447,0.844,0.205,1.246
			c0,0-0.36,0.601-1.035,1.726c-0.341,0.562-0.762,1.256-1.256,2.071c-0.532,0.792-1.144,1.703-1.828,2.723
			c-0.675,1.031-1.518,2.099-2.402,3.294c-0.866,1.21-1.911,2.431-3.007,3.757c-2.233,2.614-4.85,5.505-7.961,8.414
			c-3.11,2.907-6.666,5.883-10.67,8.725c-3.986,2.869-8.433,5.573-13.214,8.076c-4.793,2.475-9.941,4.719-15.358,6.535
			c-2.713,0.886-5.48,1.718-8.307,2.357c-1.407,0.354-2.832,0.639-4.261,0.919c-1.435,0.236-2.87,0.501-4.316,0.686
			c-5.783,0.806-11.641,1.022-17.425,0.687l-2.22-0.173c-0.733-0.06-1.364-0.14-2.048-0.208c-1.48-0.155-2.868-0.357-4.288-0.599
			c-2.82-0.467-5.593-1.069-8.278-1.844c-5.379-1.511-10.426-3.653-14.884-6.255c-4.48-2.569-8.335-5.643-11.517-8.799
			c-1.592-1.582-2.985-3.218-4.262-4.794c-1.222-1.625-2.358-3.17-3.277-4.717c-1.865-3.071-3.235-5.858-4.144-8.23
			c-0.482-1.174-0.833-2.244-1.163-3.17c-0.283-0.95-0.545-1.767-0.708-2.399c-0.332-1.266-0.483-1.95-0.483-1.95
			c-0.182-0.82,0.336-1.633,1.156-1.814C150.005,335.469,150.65,335.767,150.98,336.302z"/>
	</g>
	<g>
		<g>
			<path style="&st3;" d="M210.857,407.117c0,0.001,0.188,0.258,0.579,0.698c0.382,0.448,0.958,1.098,1.76,1.932
				c0.764,0.854,1.811,1.822,3.006,2.977c0.582,0.591,1.3,1.143,2.008,1.779c0.727,0.62,1.448,1.324,2.299,1.979
				c1.702,1.307,3.493,2.842,5.651,4.262c1.054,0.734,2.15,1.498,3.288,2.29c1.178,0.732,2.398,1.491,3.659,2.275
				c0.628,0.392,1.267,0.788,1.915,1.192c0.673,0.364,1.356,0.733,2.05,1.109c1.385,0.744,2.81,1.51,4.271,2.296
				c1.473,0.761,3.044,1.436,4.61,2.191c0.787,0.37,1.583,0.744,2.389,1.122c0.402,0.189,0.806,0.38,1.212,0.57
				c0.412,0.182,0.84,0.334,1.262,0.503c1.694,0.663,3.423,1.339,5.185,2.027c0.883,0.337,1.759,0.709,2.668,1.025
				c0.919,0.29,1.847,0.583,2.783,0.878c1.863,0.601,3.758,1.211,5.682,1.831c0.949,0.341,1.949,0.563,2.944,0.818
				c0.996,0.251,1.999,0.505,3.009,0.76c2.015,0.512,4.058,1.03,6.126,1.556c2.101,0.396,4.228,0.799,6.377,1.205
				c1.073,0.204,2.152,0.408,3.237,0.614c1.083,0.207,2.166,0.447,3.281,0.558c2.216,0.284,4.453,0.571,6.708,0.861
				c1.126,0.146,2.258,0.291,3.394,0.438l1.706,0.221l1.728,0.123c2.307,0.162,4.63,0.325,6.967,0.489
				c2.387,0.165,4.788,0.331,7.201,0.498c2.432,0.179,4.803,0.293,7.315,0.537c5.15,0.576,10.286,1.241,15.276,2.453
				c1.275,0.269,2.467,0.578,3.687,0.875l3.51,0.836c1.185,0.311,2.161,0.41,3.223,0.613c0.537,0.124,1.004,0.095,1.498,0.137
				l0.733,0.046l0.367,0.025l0.183,0.014l0.092,0.007c-0.117,0.007,0.392-0.006-0.24,0.018l1.857-0.113
				c0.59-0.048,1.326-0.047,1.708-0.164l1.373-0.251c0.245-0.048,0.424-0.056,0.725-0.131l0.856-0.2l3.51-0.836
				c1.22-0.297,2.412-0.606,3.687-0.875c4.998-1.214,10.144-1.876,15.166-2.442c2.517-0.247,5.015-0.372,7.504-0.553
				c2.376-0.165,4.74-0.328,7.09-0.49c2.388-0.169,4.761-0.337,7.116-0.504l1.763-0.127l1.685-0.22
				c1.123-0.146,2.24-0.291,3.354-0.435c2.23-0.287,4.441-0.57,6.632-0.852c1.099-0.108,2.185-0.349,3.269-0.556
				c1.084-0.206,2.163-0.41,3.236-0.614c2.15-0.406,4.276-0.809,6.377-1.205c2.068-0.525,4.111-1.044,6.127-1.556
				c1.01-0.255,2.013-0.509,3.008-0.76c0.995-0.255,1.995-0.478,2.944-0.818c1.924-0.62,3.818-1.23,5.682-1.831
				c0.936-0.295,1.863-0.588,2.783-0.878c0.908-0.316,1.785-0.688,2.668-1.025c1.762-0.688,3.491-1.364,5.185-2.027
				c0.422-0.169,0.851-0.321,1.262-0.503c0.407-0.19,0.811-0.381,1.213-0.57c0.806-0.378,1.602-0.752,2.389-1.122
				c1.566-0.756,3.138-1.431,4.61-2.191c1.462-0.786,2.887-1.552,4.271-2.296c0.693-0.376,1.377-0.745,2.05-1.109
				c0.648-0.404,1.286-0.801,1.915-1.192c1.26-0.784,2.48-1.543,3.658-2.275c1.138-0.792,2.234-1.556,3.288-2.29
				c2.158-1.42,3.949-2.955,5.651-4.262c0.851-0.655,1.572-1.359,2.299-1.979c0.707-0.637,1.426-1.188,2.008-1.779
				c1.195-1.154,2.243-2.122,3.006-2.977c0.8-0.831,1.381-1.488,1.766-1.939c0.396-0.447,0.568-0.681,0.567-0.681l0.844,0.537
				c0,0.001-0.153,0.296-0.479,0.811c-0.321,0.521-0.796,1.301-1.492,2.253c-1.352,1.94-3.489,4.676-6.529,7.889
				c-1.569,1.545-3.236,3.36-5.268,5.086c-0.997,0.885-2.023,1.827-3.134,2.747c-1.142,0.881-2.323,1.793-3.544,2.735
				c-0.613,0.472-1.235,0.951-1.868,1.438c-0.657,0.447-1.325,0.902-2.003,1.363c-1.363,0.919-2.766,1.864-4.204,2.835
				c-1.447,0.961-3.027,1.776-4.601,2.698c-0.792,0.451-1.594,0.907-2.405,1.369c-0.405,0.23-0.813,0.463-1.224,0.696
				c-0.415,0.223-0.847,0.417-1.272,0.629c-1.714,0.832-3.464,1.681-5.246,2.546c-0.896,0.426-1.789,0.888-2.713,1.294
				c-0.935,0.379-1.878,0.762-2.829,1.147c-1.91,0.762-3.853,1.536-5.824,2.322c-0.98,0.42-2.005,0.719-3.027,1.051
				c-1.024,0.329-2.057,0.66-3.096,0.993c-2.08,0.664-4.189,1.351-6.339,1.989c-2.175,0.529-4.375,1.065-6.601,1.607
				c-1.114,0.271-2.234,0.543-3.36,0.816c-1.128,0.27-2.255,0.56-3.427,0.728c-2.327,0.395-4.678,0.793-7.048,1.195
				c-1.187,0.199-2.378,0.399-3.574,0.601l-1.8,0.302l-1.761,0.179c-2.35,0.234-4.718,0.471-7.099,0.709
				c-2.421,0.236-4.855,0.476-7.303,0.715c-2.333,0.224-4.695,0.372-7.033,0.645c-4.67,0.601-9.289,1.318-13.901,2.442
				c-1.143,0.245-2.344,0.563-3.526,0.858l-3.714,0.906l-0.953,0.228c-0.3,0.077-0.738,0.142-1.102,0.21l-2.292,0.385
				c-0.832,0.156-1.345,0.14-1.99,0.196l-1.856,0.123c-0.708,0.019-0.277,0.001-0.472,0.003l-0.141-0.008l-0.281-0.017l-0.562-0.033
				l-1.124-0.073c-0.74-0.062-1.522-0.073-2.2-0.223c-1.375-0.249-2.865-0.464-4.077-0.791l-3.713-0.906
				c-1.183-0.295-2.384-0.613-3.527-0.858c-4.62-1.126-9.248-1.84-13.792-2.432c-2.342-0.274-4.831-0.434-7.221-0.661
				c-2.41-0.236-4.808-0.473-7.191-0.706c-2.432-0.243-4.849-0.484-7.249-0.724l-1.795-0.183l-1.778-0.301
				c-1.183-0.2-2.361-0.399-3.535-0.599c-2.344-0.398-4.668-0.793-6.971-1.185c-1.155-0.166-2.286-0.456-3.413-0.726
				c-1.126-0.273-2.246-0.545-3.36-0.816c-2.225-0.542-4.426-1.078-6.601-1.607c-2.149-0.639-4.258-1.325-6.338-1.989
				c-1.039-0.333-2.071-0.664-3.096-0.993c-1.023-0.332-2.047-0.631-3.027-1.051c-1.973-0.786-3.915-1.561-5.825-2.322
				c-0.951-0.386-1.894-0.769-2.828-1.147c-0.924-0.406-1.817-0.868-2.713-1.294c-1.783-0.865-3.533-1.714-5.247-2.546
				c-0.426-0.212-0.857-0.406-1.272-0.629c-0.411-0.233-0.819-0.466-1.225-0.696c-0.811-0.462-1.612-0.918-2.405-1.369
				c-1.574-0.922-3.153-1.737-4.601-2.698c-1.439-0.971-2.841-1.916-4.204-2.835c-0.678-0.461-1.346-0.916-2.004-1.363
				c-0.632-0.487-1.254-0.967-1.867-1.438c-1.221-0.942-2.403-1.854-3.544-2.735c-1.11-0.92-2.137-1.862-3.134-2.747
				c-2.03-1.726-3.698-3.541-5.268-5.086c-3.039-3.213-5.177-5.948-6.529-7.889c-0.694-0.95-1.174-1.736-1.498-2.261
				c-0.33-0.521-0.467-0.793-0.467-0.793L210.857,407.117z"/>
		</g>
	</g>
	<g>
		<g>
			<path style="&st13;" d="M253.511,459.269c0,0,0.749,0.438,2.152,1.257c1.404,0.76,3.393,1.984,5.993,3.362
				c2.552,1.442,5.73,2.992,9.361,4.636c3.665,1.586,7.832,3.202,12.5,4.597c2.357,0.639,4.765,1.421,7.342,2.006
				c1.272,0.329,2.596,0.592,3.925,0.887c1.342,0.264,2.702,0.53,4.081,0.82c2.766,0.548,5.625,1.055,8.58,1.468
				c2.949,0.431,5.987,0.769,9.062,1.306c6.166,0.95,12.564,2.439,19.173,3.704c1.652,0.316,3.312,0.636,4.988,0.863
				c1.674,0.251,3.353,0.526,5.044,0.68c3.372,0.357,6.797,0.507,10.174,0.517c3.426-0.039,6.846-0.22,10.203-0.589
				c1.684-0.171,3.367-0.435,5.039-0.703c1.675-0.245,3.335-0.553,4.986-0.878c6.607-1.284,13.004-2.828,19.164-3.848
				c3.079-0.524,6.101-0.979,9.054-1.385c1.472-0.224,2.934-0.429,4.358-0.688c1.436-0.231,2.847-0.463,4.231-0.725
				c2.77-0.525,5.456-1.023,8.029-1.602c2.572-0.573,5.016-1.25,7.357-1.898c4.709-1.25,8.844-2.846,12.521-4.311
				c3.615-1.575,6.749-3.104,9.253-4.552c2.544-1.394,4.474-2.663,5.828-3.503c1.342-0.869,2.058-1.333,2.058-1.333l0.251-0.163
				c0.688-0.445,1.608-0.249,2.054,0.439c0.385,0.594,0.291,1.359-0.184,1.845c0,0-0.609,0.624-1.752,1.794
				c-1.174,1.14-2.865,2.856-5.196,4.868c-2.302,2.049-5.263,4.366-8.838,6.824c-3.618,2.369-7.832,4.941-12.681,7.249
				c-2.415,1.175-4.957,2.362-7.638,3.476c-2.678,1.113-5.487,2.162-8.383,3.238c-2.9,1.076-5.91,2.064-9.006,3.024
				c-0.775,0.234-1.555,0.47-2.338,0.707c-0.783,0.252-1.569,0.505-2.36,0.759c-1.584,0.484-3.176,1.049-4.79,1.613
				c-6.441,2.232-13.131,5.229-20.058,7.529c-3.467,1.21-6.952,2.139-10.527,2.751c-0.898,0.174-1.801,0.261-2.703,0.396
				c-0.888,0.137-1.842,0.227-2.681,0.287c-1.708,0.177-3.419,0.189-5.13,0.248l-0.271,0.002l-0.167-0.005l-0.333-0.01l-0.666-0.021
				l-1.331-0.042c-0.887-0.007-1.774-0.104-2.66-0.173c-0.884-0.061-1.775-0.156-2.661-0.3c-0.886-0.141-1.772-0.229-2.654-0.421
				c-3.535-0.658-7.049-1.627-10.504-2.917c-6.923-2.438-13.602-5.506-20.05-7.675c-0.806-0.277-1.609-0.554-2.408-0.828
				c-0.802-0.249-1.597-0.476-2.389-0.74c-1.583-0.529-3.157-0.921-4.704-1.438c-3.095-0.956-6.102-2-8.997-3.077
				c-5.806-2.099-11.172-4.432-15.964-6.84c-4.799-2.403-8.993-4.948-12.564-7.352c-3.547-2.448-6.522-4.687-8.861-6.652
				c-2.376-1.912-4.137-3.518-5.393-4.562c-1.208-1.06-1.851-1.625-1.851-1.625c-0.619-0.544-0.681-1.486-0.137-2.105
				c0.479-0.546,1.269-0.658,1.874-0.305L253.511,459.269z"/>
		</g>
	</g>
	<g>
		<g>
			<path style="&st12;" d="M118.442,430.918c0,0,1.313,1.699,3.775,4.887c1.231,1.594,2.728,3.583,4.622,5.783
				c0.932,1.114,1.934,2.311,3.002,3.588c0.533,0.639,1.083,1.297,1.649,1.976c0.591,0.659,1.199,1.337,1.824,2.034
				c1.249,1.393,2.565,2.859,3.945,4.398c1.37,1.547,2.924,3.055,4.476,4.688c3.085,3.285,6.651,6.609,10.396,10.215
				c7.648,7.051,16.718,14.517,27.152,21.889c0.649,0.465,1.302,0.932,1.958,1.4c0.672,0.446,1.347,0.896,2.026,1.346
				c1.357,0.902,2.728,1.812,4.111,2.732c2.767,1.835,5.694,3.54,8.609,5.364c2.981,1.718,6.011,3.468,9.12,5.183
				c3.151,1.641,6.287,3.421,9.595,4.98c1.641,0.804,3.292,1.613,4.955,2.429c1.688,0.763,3.386,1.53,5.094,2.303
				c0.854,0.386,1.711,0.772,2.57,1.161c0.87,0.364,1.742,0.729,2.617,1.096c1.752,0.728,3.514,1.459,5.285,2.194
				c1.792,0.685,3.593,1.373,5.404,2.065c0.906,0.345,1.813,0.69,2.724,1.036c0.92,0.32,1.842,0.642,2.767,0.963
				c1.848,0.646,3.704,1.295,5.569,1.946c1.881,0.604,3.771,1.209,5.668,1.817c15.21,4.773,31.326,8.414,47.875,10.923
				c16.553,2.483,33.557,3.815,50.556,3.789c17.007-0.053,33.994-1.323,50.551-3.822c16.537-2.568,32.645-6.208,47.856-10.964
				c7.624-2.328,14.97-5.067,22.112-7.857c1.771-0.734,3.533-1.464,5.285-2.189c0.875-0.366,1.747-0.73,2.617-1.094
				c0.859-0.388,1.716-0.773,2.569-1.158c1.709-0.771,3.407-1.537,5.095-2.298c1.662-0.813,3.314-1.622,4.954-2.425
				c13.113-6.456,24.96-13.658,35.411-20.992c5.229-3.667,10.096-7.388,14.615-11.062c2.232-1.87,4.467-3.628,6.536-5.455
				c2.062-1.836,4.065-3.62,6.007-5.349c3.752-3.597,7.315-6.922,10.4-10.206c1.555-1.63,3.111-3.136,4.483-4.68
				c1.382-1.536,2.699-3.001,3.95-4.392c0.626-0.696,1.235-1.373,1.828-2.031c0.567-0.679,1.119-1.338,1.653-1.977
				c1.071-1.278,2.075-2.477,3.01-3.592c1.904-2.203,3.396-4.179,4.627-5.766c2.463-3.176,3.776-4.869,3.776-4.869l0.015-0.018
				c0.198-0.256,0.566-0.303,0.821-0.104c0.248,0.191,0.299,0.543,0.123,0.797c0,0-1.228,1.769-3.529,5.085
				c-1.152,1.659-2.547,3.727-4.343,6.042c-0.883,1.17-1.832,2.428-2.844,3.769c-0.511,0.668-1.038,1.356-1.58,2.065
				c-0.567,0.689-1.15,1.398-1.75,2.127c-1.2,1.458-2.465,2.995-3.791,4.606c-1.317,1.62-2.819,3.207-4.318,4.923
				c-2.973,3.458-6.47,6.934-10.136,10.723c-7.487,7.418-16.425,15.326-26.855,23.09c-0.648,0.49-1.3,0.983-1.954,1.479
				c-0.671,0.473-1.346,0.948-2.023,1.426c-1.355,0.956-2.726,1.921-4.107,2.896c-2.769,1.945-5.695,3.768-8.621,5.703
				c-2.996,1.819-6.038,3.686-9.178,5.491c-3.177,1.737-6.344,3.615-9.685,5.273c-1.657,0.854-3.326,1.713-5.007,2.578
				c-1.706,0.812-3.423,1.63-5.15,2.452c-0.863,0.411-1.73,0.823-2.6,1.237c-0.881,0.389-1.764,0.779-2.648,1.171
				c-1.773,0.778-3.558,1.561-5.351,2.347c-7.255,2.948-14.728,5.832-22.481,8.309c-15.47,5.055-31.872,9.004-48.753,11.639
				c-16.879,2.583-34.235,4.071-51.592,4.031c-17.364-0.04-34.703-1.466-51.586-4.064c-16.87-2.694-33.263-6.643-48.735-11.681
				c-7.756-2.461-15.222-5.361-22.462-8.337c-1.793-0.785-3.577-1.565-5.351-2.342c-0.885-0.391-1.768-0.78-2.648-1.169
				c-0.869-0.413-1.736-0.824-2.6-1.234c-1.728-0.821-3.444-1.637-5.15-2.448c-1.68-0.863-3.349-1.721-5.007-2.573
				c-13.266-6.816-25.141-14.494-35.559-22.256c-10.437-7.748-19.355-15.674-26.862-23.065c-3.672-3.78-7.167-7.257-10.14-10.714
				c-1.501-1.713-3.005-3.298-4.325-4.915c-1.328-1.609-2.595-3.144-3.797-4.6c-0.601-0.728-1.185-1.436-1.753-2.123
				c-0.544-0.71-1.072-1.399-1.585-2.067c-1.015-1.343-1.966-2.601-2.852-3.771c-1.805-2.319-3.195-4.373-4.347-6.025
				c-2.303-3.305-3.531-5.067-3.531-5.067c-0.185-0.266-0.12-0.631,0.146-0.816C117.9,430.616,118.252,430.673,118.442,430.918z"/>
		</g>
	</g>
	<g>
		<path style="&st11;" d="M408.842,366.414c-14.604-1.68-53.793,12.816-53.793,12.816s-39.188-14.496-53.792-12.816
			c-14.638,1.683-10.005,14.024,0.525,9.751c12.081-4.904,28.936,8.03,53.267,8.03c24.332,0,42.454-10.025,54.535-5.122
			C420.114,383.348,423.479,368.097,408.842,366.414z"/>
		<g>
			<linearGradient id="SVGID_5_" gradientUnits="userSpaceOnUse" x1="377.2207" y1="366.0078" x2="420.5561" y2="373.649">
				<stop  offset="0" style="stop-color:#A89383"/>
				<stop  offset="0.2617" style="stop-color:#A59081"/>
				<stop  offset="0.479" style="stop-color:#9A867A"/>
				<stop  offset="0.6803" style="stop-color:#89766F"/>
				<stop  offset="0.8708" style="stop-color:#715F5F"/>
				<stop  offset="1" style="stop-color:#5C4B51"/>
			</linearGradient>
			<path style="&st8;" d="M412.012,377.229c0,0,0.185-0.059,0.531-0.169c0.291-0.095,0.756-0.298,1.207-0.56
				c0.472-0.258,0.811-0.695,1.046-1.159c0.113-0.249,0.194-0.548,0.243-0.902c0.01-0.091,0.027-0.174,0.029-0.276l0.009-0.146
				l0.005-0.073l0.002-0.036l0.001-0.009c0.005-0.03-0.042,0.234-0.021,0.116l0.002-0.025l0.038-0.415l0.008-0.101l-0.016-0.021
				c-0.01-0.013-0.016-0.025-0.02-0.037c-0.038-0.146-0.119-0.37-0.283-0.567c-0.154-0.223-0.432-0.505-0.836-0.783
				c-0.798-0.58-1.951-1.141-3.205-1.662c-0.681-0.289-1.184-0.469-1.763-0.598c-0.612-0.143-1.275-0.249-1.957-0.33
				c-1.37-0.149-2.811-0.202-4.258-0.163c-2.895,0.088-5.819,0.382-8.513,0.929c-1.35,0.262-2.638,0.588-3.856,0.907
				c-1.224,0.305-2.364,0.654-3.411,0.998c-1.041,0.358-2.006,0.665-2.843,0.988c-0.837,0.327-1.566,0.613-2.167,0.848
				c-0.604,0.235-1.068,0.441-1.387,0.58s-0.489,0.213-0.489,0.213l-0.169,0.073c-0.757,0.329-1.638-0.018-1.967-0.774
				c-0.314-0.724-0.007-1.562,0.681-1.922c0,0,0.698-0.363,1.92-1c0.614-0.312,1.361-0.688,2.218-1.121
				c0.857-0.437,1.857-0.852,2.93-1.365c1.081-0.49,2.268-1,3.55-1.474c1.275-0.495,2.629-1.03,4.065-1.493
				c1.438-0.454,2.94-0.92,4.5-1.336c1.562-0.411,3.181-0.752,4.844-0.996c1.664-0.256,3.373-0.406,5.144-0.358
				c0.894,0.017,1.797,0.107,2.764,0.27c0.252,0.047,0.458,0.074,0.785,0.158l0.777,0.198l0.264,0.069l0.41,0.141l0.556,0.19
				c1.499,0.539,3.069,1.113,4.747,2.371c0.827,0.635,1.726,1.513,2.44,2.748c0.351,0.61,0.64,1.318,0.809,2.047
				c0.098,0.362,0.152,0.723,0.179,1.084l0.03,0.535c0.005,0.185-0.008,0.414-0.02,0.616c-0.015,0.208-0.034,0.414-0.061,0.617
				l-0.043,0.301c-0.013,0.054-0.023,0.073-0.035,0.111l-0.137,0.4l-0.008,0.025c0.044-0.255-0.064,0.36-0.058,0.305l-0.009,0.02
				l-0.037,0.079l-0.075,0.155l-0.15,0.305c-0.095,0.195-0.218,0.406-0.333,0.604c-0.454,0.799-1.059,1.554-1.786,2.127
				c-0.707,0.594-1.501,0.972-2.216,1.151c-0.709,0.21-1.34,0.201-1.861,0.15c-1.041-0.117-1.677-0.474-2.134-0.723
				c-0.217-0.12-0.332-0.258-0.435-0.329c-0.094-0.077-0.143-0.117-0.143-0.117l-0.26-0.215c-0.29-0.239-0.331-0.668-0.092-0.958
				C411.78,377.34,411.891,377.269,412.012,377.229z"/>
		</g>
		<linearGradient id="SVGID_6_" gradientUnits="userSpaceOnUse" x1="288.8516" y1="373.8701" x2="330.9362" y2="366.4495">
			<stop  offset="0" style="stop-color:#5C4B51"/>
			<stop  offset="0.1292" style="stop-color:#715F5F"/>
			<stop  offset="0.3197" style="stop-color:#89766F"/>
			<stop  offset="0.521" style="stop-color:#9A867A"/>
			<stop  offset="0.7383" style="stop-color:#A59081"/>
			<stop  offset="1" style="stop-color:#A89383"/>
		</linearGradient>
		<path style="&st9;" d="M298.085,377.272c0,0-0.185-0.055-0.532-0.159c-0.295-0.09-0.764-0.283-1.227-0.541
			c-0.481-0.254-0.848-0.688-1.104-1.169c-0.258-0.477-0.347-1.354-0.33-1.945c0.031-0.265,0.125-0.439,0.299-0.679
			c0.165-0.241,0.461-0.533,0.871-0.819c0.809-0.593,1.976-1.154,3.233-1.676c0.677-0.29,1.196-0.474,1.781-0.604
			c0.618-0.145,1.287-0.253,1.973-0.334c1.378-0.151,2.823-0.204,4.275-0.167c2.904,0.086,5.837,0.385,8.537,0.933
			c1.354,0.264,2.646,0.591,3.866,0.912c1.227,0.309,2.369,0.661,3.418,1.008c1.042,0.36,2.008,0.673,2.846,0.999
			c0.84,0.321,1.567,0.617,2.168,0.859c0.604,0.238,1.068,0.447,1.387,0.589c0.318,0.14,0.488,0.215,0.488,0.215l0.151,0.066
			c0.709,0.312,1.536-0.009,1.849-0.717c0.299-0.679,0.013-1.47-0.636-1.809c0,0-0.696-0.364-1.916-0.999
			c-0.614-0.309-1.359-0.685-2.216-1.115c-0.857-0.433-1.854-0.846-2.928-1.352c-1.081-0.484-2.267-0.988-3.547-1.453
			c-1.274-0.487-2.628-1.01-4.062-1.462c-1.436-0.443-2.936-0.896-4.492-1.296c-1.557-0.396-3.17-0.723-4.825-0.953
			c-1.654-0.241-3.353-0.378-5.106-0.322c-0.883,0.022-1.776,0.115-2.729,0.277c-0.246,0.047-0.452,0.075-0.769,0.158l-0.761,0.195
			l-0.264,0.07l-0.398,0.138l-0.554,0.192c-1.487,0.54-3.034,1.105-4.678,2.341c-0.812,0.623-1.678,1.463-2.372,2.654
			c-0.688,1.18-1.085,2.742-0.973,4.028c0.022,0.342,0.051,0.584,0.117,0.967l0.051,0.265c0.019,0.088,0.04,0.192,0.049,0.203
			l0.072,0.196l0.01,0.025c0.013,0.062-0.024-0.125,0.03,0.146l0.01,0.019l0.035,0.077l0.071,0.152l0.145,0.297
			c0.09,0.191,0.208,0.397,0.319,0.59c0.437,0.78,1.017,1.517,1.717,2.077c0.681,0.579,1.447,0.952,2.139,1.134
			c0.685,0.21,1.299,0.211,1.808,0.17c1.017-0.1,1.646-0.431,2.097-0.662c0.214-0.112,0.33-0.241,0.432-0.308
			c0.095-0.072,0.143-0.11,0.143-0.11l0.238-0.185c0.279-0.215,0.331-0.617,0.114-0.896
			C298.321,377.384,298.209,377.31,298.085,377.272z"/>
		<g>
			<path style="&st13;" d="M315.195,354.179c0,0,0.041,0.09,0.12,0.264c0.04,0.087,0.088,0.195,0.146,0.323
				c0.061,0.117,0.129,0.193,0.2,0.311c0.278,0.448,0.872,1.258,1.694,2.177c1.678,1.854,4.479,4.307,8.162,6.752
				c3.668,2.457,8.211,4.938,13.291,6.798c2.537,0.934,5.203,1.707,7.935,2.239c2.733,0.521,5.526,0.839,8.307,0.83
				c0.541-0.019,1.551-0.014,2.176-0.057c0.663-0.057,1.283-0.063,1.995-0.161c1.387-0.146,2.771-0.337,4.136-0.612
				c2.732-0.532,5.398-1.306,7.935-2.239c5.08-1.859,9.624-4.341,13.291-6.798c3.684-2.445,6.483-4.897,8.162-6.752
				c0.828-0.936,1.401-1.692,1.708-2.214c0.328-0.522,0.414-0.776,0.434-0.784c0.155-0.745,0.885-1.224,1.631-1.068
				c0.745,0.155,1.224,0.885,1.068,1.631c-0.018-0.02-0.016,0.518-0.239,1.349c-0.221,0.839-0.615,2.008-1.329,3.323
				c-1.388,2.655-3.893,6.015-7.51,9.411c-3.615,3.387-8.368,6.812-14.096,9.425c-2.856,1.308-5.949,2.426-9.219,3.173
				c-0.816,0.188-1.638,0.374-2.475,0.513c-0.831,0.166-1.676,0.279-2.524,0.376c-0.825,0.12-1.763,0.164-2.65,0.236
				c-0.928,0.059-1.478,0.055-2.493,0.089c-3.453-0.028-6.881-0.438-10.143-1.214c-3.27-0.747-6.362-1.865-9.219-3.173
				c-5.728-2.613-10.48-6.039-14.096-9.425c-3.617-3.396-6.122-6.756-7.509-9.411c-0.72-1.331-1.095-2.448-1.343-3.36
				c-0.056-0.225-0.118-0.444-0.138-0.594c-0.015-0.141-0.028-0.258-0.038-0.354c-0.02-0.189-0.031-0.288-0.031-0.288
				c-0.082-0.766,0.473-1.454,1.239-1.536c0.614-0.065,1.177,0.277,1.419,0.81L315.195,354.179z"/>
		</g>
	</g>
	<g>
		<linearGradient id="SVGID_7_" gradientUnits="userSpaceOnUse" x1="355.7852" y1="577.0068" x2="355.7851" y2="83.0796">
			<stop  offset="0.07" style="stop-color:#A99689"/>
			<stop  offset="0.1328" style="stop-color:#A59286"/>
			<stop  offset="0.2012" style="stop-color:#98857C"/>
			<stop  offset="0.2721" style="stop-color:#82706C"/>
			<stop  offset="0.3443" style="stop-color:#645257"/>
			<stop  offset="0.36" style="stop-color:#5C4B51"/>
		</linearGradient>
		<path style="&st10;" d="M355.787,93.079c146.448,0,268.054,85.042,291.919,196.765c1.97-11.489,9.204-20.732,25.045-23.069
			c0.907-0.134,1.744-0.199,2.519-0.199c21.022,0-5.536,48.011,0.334,70.867c6.087,23.696,14.622,46.753-9.394,60.07
			c-2.507,1.391-5.286,1.942-8.121,1.942c-6.248,0-12.763-2.684-17.204-4.987c-35.078,99.562-149.433,172.539-285.098,172.539
			S105.769,494.03,70.689,394.468c-4.442,2.304-10.956,4.987-17.205,4.987c-2.834,0-5.614-0.553-8.121-1.942
			c-24.016-13.317-15.48-36.374-9.394-60.07c5.87-22.857-20.696-70.87,0.334-70.867c0.773,0,1.613,0.065,2.519,0.199
			c15.841,2.337,23.075,11.58,25.045,23.069C87.734,178.121,209.339,93.079,355.787,93.079 M355.787,83.079
			c-36.786,0-72.757,5.2-106.915,15.456c-33.08,9.932-63.577,24.321-90.645,42.767c-47.542,32.398-81.625,75.665-97.849,123.61
			c-5.34-4.119-12.097-6.851-20.097-8.031c-1.375-0.203-2.712-0.305-3.977-0.306c-7.443-0.001-11.74,3.445-14.035,6.336
			c-7.144,9.003-3.797,23.334,0.079,39.928c2.585,11.069,5.802,24.844,3.935,32.115c-0.482,1.877-0.98,3.75-1.476,5.614
			c-3.002,11.296-6.105,22.975-5.303,34.005c1.008,13.853,8.076,24.513,21.008,31.684c3.825,2.122,8.189,3.197,12.97,3.197
			c3.644,0,7.491-0.616,11.511-1.839c9.041,22.105,21.912,43.022,38.353,62.303c18.471,21.66,40.991,40.729,66.934,56.674
			c26.115,16.051,55.046,28.531,85.991,37.094c31.942,8.839,65.424,13.32,99.514,13.32c34.09,0,67.571-4.481,99.515-13.32
			c30.944-8.562,59.876-21.043,85.99-37.094c25.943-15.945,48.464-35.014,66.935-56.674c16.44-19.28,29.312-40.197,38.353-62.303
			c4.019,1.223,7.867,1.839,11.51,1.839c4.781,0,9.146-1.075,12.971-3.197c12.933-7.171,20-17.831,21.008-31.684
			c0.803-11.03-2.301-22.709-5.303-34.005c-0.495-1.864-0.993-3.737-1.476-5.615c-1.867-7.271,1.349-21.045,3.934-32.114
			c3.874-16.594,7.22-30.924,0.077-39.927c-2.294-2.891-6.59-6.337-14.03-6.337c-1.264,0-2.602,0.103-3.978,0.306
			c-8,1.18-14.757,3.912-20.097,8.031c-16.224-47.945-50.307-91.212-97.849-123.61c-27.067-18.446-57.564-32.834-90.645-42.767
			C428.544,88.279,392.573,83.079,355.787,83.079L355.787,83.079z"/>
	</g>
</g>
</svg>
